<svg width="127" height="25" viewBox="0 0 127 25" fill="none" xmlns="http://www.w3.org/2000/svg">
<path d="M12 0L14.6942 8.2918H23.4127L16.3593 13.4164L19.0534 21.7082L12 16.5836L4.94658 21.7082L7.64074 13.4164L0.587322 8.2918H9.30583L12 0Z" fill="#E8EC35"/>
<path d="M38 1L40.6942 9.2918H49.4127L42.3593 14.4164L45.0534 22.7082L38 17.5836L30.9466 22.7082L33.6407 14.4164L26.5873 9.2918H35.3058L38 1Z" fill="#E8EC35"/>
<path d="M64 1L66.6942 9.2918H75.4127L68.3593 14.4164L71.0534 22.7082L64 17.5836L56.9466 22.7082L59.6407 14.4164L52.5873 9.2918H61.3058L64 1Z" fill="#E8EC35"/>
<path d="M89 1L91.6942 9.2918H100.413L93.3593 14.4164L96.0534 22.7082L89 17.5836L81.9466 22.7082L84.6407 14.4164L77.5873 9.2918H86.3058L89 1Z" fill="#E8EC35"/>
<path d="M115 2.61804L117.219 9.4463L117.331 9.7918H117.694H124.874L119.065 14.0119L118.771 14.2254L118.884 14.5709L121.102 21.3992L115.294 17.1791L115 16.9656L114.706 17.1791L108.898 21.3992L111.116 14.5709L111.229 14.2254L110.935 14.0119L105.126 9.7918H112.306H112.669L112.781 9.4463L115 2.61804Z" stroke="#E8EC35"/>
</svg>
