<svg width="127" height="25" viewBox="0 0 127 25" fill="none" xmlns="http://www.w3.org/2000/svg">
<path d="M12 0L14.6942 8.2918H23.4127L16.3593 13.4164L19.0534 21.7082L12 16.5836L4.94658 21.7082L7.64074 13.4164L0.587322 8.2918H9.30583L12 0Z" fill="#E8EC35"/>
<path d="M38 1L40.6942 9.2918H49.4127L42.3593 14.4164L45.0534 22.7082L38 17.5836L30.9466 22.7082L33.6407 14.4164L26.5873 9.2918H35.3058L38 1Z" fill="#E8EC35"/>
<path d="M64 1L66.6942 9.2918H75.4127L68.3593 14.4164L71.0534 22.7082L64 17.5836L56.9466 22.7082L59.6407 14.4164L52.5873 9.2918H61.3058L64 1Z" fill="#E8EC35"/>
<path d="M89 1L91.6942 9.2918H100.413L93.3593 14.4164L96.0534 22.7082L89 17.5836L81.9466 22.7082L84.6407 14.4164L77.5873 9.2918H86.3058L89 1Z" fill="#E8EC35"/>
<path d="M115 1L117.694 9.2918H126.413L119.359 14.4164L122.053 22.7082L115 17.5836L107.947 22.7082L110.641 14.4164L103.587 9.2918H112.306L115 1Z" fill="#E8EC35"/>
</svg>
