<svg width="371" height="192" viewBox="0 0 371 192" fill="none" xmlns="http://www.w3.org/2000/svg">
<circle cx="22.5" cy="22.5" r="22.5" fill="#F5F5F5"/>
<circle cx="77.5" cy="22.5" r="22.5" fill="#F5F5F5"/>
<circle cx="132.5" cy="22.5" r="22.5" fill="#F5F5F5"/>
<circle cx="187.5" cy="22.5" r="22.5" fill="#F5F5F5"/>
<circle cx="242.5" cy="22.5" r="22.5" fill="#F5F5F5"/>
<g clip-path="url(#clip0_1334_1358)">
<path d="M77 13.8008C79.6719 13.8008 79.9883 13.8125 81.0391 13.8594C82.0156 13.9023 82.543 14.0664 82.8945 14.2031C83.3594 14.3828 83.6953 14.6016 84.043 14.9492C84.3945 15.3008 84.6094 15.6328 84.7891 16.0977C84.9258 16.4492 85.0898 16.9805 85.1328 17.9531C85.1797 19.0078 85.1914 19.3242 85.1914 21.9922C85.1914 24.6641 85.1797 24.9805 85.1328 26.0313C85.0898 27.0078 84.9258 27.5352 84.7891 27.8867C84.6094 28.3516 84.3906 28.6875 84.043 29.0352C83.6914 29.3867 83.3594 29.6016 82.8945 29.7813C82.543 29.918 82.0117 30.082 81.0391 30.125C79.9844 30.1719 79.668 30.1836 77 30.1836C74.3281 30.1836 74.0117 30.1719 72.9609 30.125C71.9844 30.082 71.457 29.918 71.1055 29.7813C70.6406 29.6016 70.3047 29.3828 69.957 29.0352C69.6055 28.6836 69.3906 28.3516 69.2109 27.8867C69.0742 27.5352 68.9102 27.0039 68.8672 26.0313C68.8203 24.9766 68.8086 24.6602 68.8086 21.9922C68.8086 19.3203 68.8203 19.0039 68.8672 17.9531C68.9102 16.9766 69.0742 16.4492 69.2109 16.0977C69.3906 15.6328 69.6094 15.2969 69.957 14.9492C70.3086 14.5977 70.6406 14.3828 71.1055 14.2031C71.457 14.0664 71.9883 13.9023 72.9609 13.8594C74.0117 13.8125 74.3281 13.8008 77 13.8008ZM77 12C74.2852 12 73.9453 12.0117 72.8789 12.0586C71.8164 12.1055 71.0859 12.2773 70.4531 12.5234C69.793 12.7812 69.2344 13.1211 68.6797 13.6797C68.1211 14.2344 67.7813 14.793 67.5234 15.4492C67.2773 16.0859 67.1055 16.8125 67.0586 17.875C67.0117 18.9453 67 19.2852 67 22C67 24.7148 67.0117 25.0547 67.0586 26.1211C67.1055 27.1836 67.2773 27.9141 67.5234 28.5469C67.7813 29.207 68.1211 29.7656 68.6797 30.3203C69.2344 30.875 69.793 31.2188 70.4492 31.4727C71.0859 31.7188 71.8125 31.8906 72.875 31.9375C73.9414 31.9844 74.2813 31.9961 76.9961 31.9961C79.7109 31.9961 80.0508 31.9844 81.1172 31.9375C82.1797 31.8906 82.9102 31.7188 83.543 31.4727C84.1992 31.2188 84.7578 30.875 85.3125 30.3203C85.8672 29.7656 86.2109 29.207 86.4648 28.5508C86.7109 27.9141 86.8828 27.1875 86.9297 26.125C86.9766 25.0586 86.9883 24.7188 86.9883 22.0039C86.9883 19.2891 86.9766 18.9492 86.9297 17.8828C86.8828 16.8203 86.7109 16.0898 86.4648 15.457C86.2188 14.793 85.8789 14.2344 85.3203 13.6797C84.7656 13.125 84.207 12.7813 83.5508 12.5273C82.9141 12.2812 82.1875 12.1094 81.125 12.0625C80.0547 12.0117 79.7148 12 77 12Z" fill="black"/>
<path d="M77 16.8633C74.1641 16.8633 71.8633 19.1641 71.8633 22C71.8633 24.8359 74.1641 27.1367 77 27.1367C79.8359 27.1367 82.1367 24.8359 82.1367 22C82.1367 19.1641 79.8359 16.8633 77 16.8633ZM77 25.332C75.1602 25.332 73.668 23.8398 73.668 22C73.668 20.1602 75.1602 18.668 77 18.668C78.8398 18.668 80.332 20.1602 80.332 22C80.332 23.8398 78.8398 25.332 77 25.332Z" fill="black"/>
<path d="M83.5391 16.6602C83.5391 17.3242 83 17.8594 82.3398 17.8594C81.6758 17.8594 81.1406 17.3203 81.1406 16.6602C81.1406 15.9961 81.6797 15.4609 82.3398 15.4609C83 15.4609 83.5391 16 83.5391 16.6602Z" fill="black"/>
</g>
<g clip-path="url(#clip1_1334_1358)">
<path d="M32 22C32 16.4771 27.5229 12 22 12C16.4771 12 12 16.4771 12 22C12 26.9912 15.6568 31.1283 20.4375 31.8785V24.8906H17.8984V22H20.4375V19.7969C20.4375 17.2906 21.9305 15.9063 24.2146 15.9063C25.3084 15.9063 26.4531 16.1016 26.4531 16.1016V18.5625H25.1922C23.95 18.5625 23.5625 19.3334 23.5625 20.125V22H26.3359L25.8926 24.8906H23.5625V31.8785C28.3432 31.1283 32 26.9912 32 22Z" fill="black"/>
</g>
<g clip-path="url(#clip2_1334_1358)">
<path d="M142.602 18.1546C142.489 17.7291 142.266 17.3408 141.956 17.0285C141.645 16.7162 141.258 16.4908 140.834 16.375C139.27 15.9546 133.02 15.9546 133.02 15.9546C133.02 15.9546 126.77 15.9546 125.206 16.375C124.782 16.4908 124.395 16.7162 124.084 17.0285C123.774 17.3408 123.551 17.7291 123.438 18.1546C123.02 19.725 123.02 23 123.02 23C123.02 23 123.02 26.275 123.438 27.8455C123.551 28.271 123.774 28.6593 124.084 28.9716C124.395 29.2839 124.782 29.5092 125.206 29.625C126.77 30.0455 133.02 30.0455 133.02 30.0455C133.02 30.0455 139.27 30.0455 140.834 29.625C141.258 29.5092 141.645 29.2839 141.956 28.9716C142.266 28.6593 142.489 28.271 142.602 27.8455C143.02 26.275 143.02 23 143.02 23C143.02 23 143.02 19.725 142.602 18.1546Z" fill="black"/>
<path d="M130.975 25.9739V20.0261L136.202 23L130.975 25.9739Z" fill="#FEFEFE"/>
</g>
<g clip-path="url(#clip3_1334_1358)">
<path fill-rule="evenodd" clip-rule="evenodd" d="M187 12.4167C184.626 12.418 182.33 13.2588 180.523 14.7889C178.715 16.3189 177.513 18.4384 177.133 20.7684C176.753 23.0984 177.218 25.4869 178.447 27.5069C179.675 29.5269 181.586 31.0466 183.838 31.7942C184.334 31.8864 184.521 31.5785 184.521 31.3167C184.521 31.055 184.512 30.2959 184.508 29.4661C181.726 30.0671 181.138 28.2922 181.138 28.2922C180.685 27.1396 180.029 26.8367 180.029 26.8367C179.122 26.2209 180.097 26.2324 180.097 26.2324C181.102 26.3032 181.63 27.2582 181.63 27.2582C182.521 28.7779 183.97 28.3383 184.54 28.0814C184.629 27.4376 184.889 26.9997 185.176 26.751C182.953 26.5008 180.619 25.6479 180.619 21.8379C180.605 20.8498 180.973 19.8943 181.648 19.169C181.546 18.9187 181.203 17.9078 181.746 16.5346C181.746 16.5346 182.586 16.2679 184.497 17.5538C186.136 17.1081 187.865 17.1081 189.504 17.5538C191.413 16.2679 192.251 16.5346 192.251 16.5346C192.796 17.9045 192.453 18.9154 192.351 19.169C193.028 19.8944 193.397 20.8516 193.382 21.8412C193.382 25.6594 191.042 26.5008 188.817 26.7461C189.175 27.0556 189.494 27.6599 189.494 28.5885C189.494 29.9189 189.483 30.9891 189.483 31.3167C189.483 31.5818 189.663 31.8914 190.17 31.7942C192.422 31.0465 194.333 29.5265 195.561 27.5062C196.789 25.4859 197.255 23.097 196.874 20.7668C196.493 18.4366 195.291 16.317 193.483 14.7873C191.675 13.2575 189.378 12.4172 187.004 12.4167H187Z" fill="black"/>
<path d="M180.787 26.6933C180.765 26.7427 180.686 26.7575 180.621 26.7229C180.557 26.6883 180.509 26.6241 180.532 26.5731C180.555 26.522 180.633 26.5089 180.697 26.5434C180.762 26.578 180.812 26.6439 180.787 26.6933Z" fill="black"/>
<path d="M181.193 27.1428C181.159 27.16 181.119 27.1648 181.082 27.1563C181.044 27.1479 181.011 27.1268 180.988 27.0967C180.923 27.0275 180.91 26.932 180.959 26.8892C181.009 26.8464 181.098 26.8662 181.163 26.9353C181.228 27.0045 181.243 27.1 181.193 27.1428Z" fill="black"/>
<path d="M181.587 27.7141C181.525 27.7569 181.421 27.7141 181.363 27.6285C181.347 27.6131 181.334 27.5947 181.326 27.5743C181.317 27.5539 181.312 27.532 181.312 27.5099C181.312 27.4878 181.317 27.4659 181.326 27.4455C181.334 27.4251 181.347 27.4067 181.363 27.3914C181.424 27.3502 181.529 27.3914 181.587 27.4753C181.645 27.5593 181.646 27.6713 181.587 27.7141V27.7141Z" fill="black"/>
<path d="M182.122 28.2674C182.067 28.3283 181.956 28.3118 181.865 28.2295C181.774 28.1472 181.752 28.0352 181.807 27.9759C181.862 27.9167 181.973 27.9331 182.067 28.0138C182.161 28.0945 182.18 28.2081 182.122 28.2674V28.2674Z" fill="black"/>
<path d="M182.872 28.5901C182.847 28.6675 182.735 28.702 182.622 28.6691C182.509 28.6362 182.435 28.544 182.456 28.4649C182.478 28.3859 182.592 28.3497 182.706 28.3859C182.821 28.4221 182.894 28.5094 182.872 28.5901Z" fill="black"/>
<path d="M183.69 28.6461C183.69 28.7268 183.597 28.796 183.478 28.7976C183.358 28.7993 183.261 28.7334 183.261 28.6527C183.261 28.5721 183.353 28.5029 183.473 28.5013C183.592 28.4996 183.69 28.5638 183.69 28.6461Z" fill="black"/>
<path d="M184.452 28.5192C184.467 28.5999 184.384 28.6838 184.265 28.7036C184.145 28.7233 184.041 28.6756 184.026 28.5966C184.011 28.5175 184.097 28.4319 184.213 28.4105C184.329 28.3891 184.437 28.4385 184.452 28.5192Z" fill="black"/>
</g>
<path d="M240.24 20.3899C239.67 20.3899 239.22 20.8899 239.22 21.4999C239.22 22.1099 239.68 22.6099 240.24 22.6099C240.81 22.6099 241.26 22.1099 241.26 21.4999C241.27 20.8899 240.81 20.3899 240.24 20.3899ZM243.89 20.3899C243.32 20.3899 242.87 20.8899 242.87 21.4999C242.87 22.1099 243.33 22.6099 243.89 22.6099C244.46 22.6099 244.91 22.1099 244.91 21.4999C244.91 20.8899 244.46 20.3899 243.89 20.3899Z" fill="black"/>
<path d="M248.75 12H235.35C234.22 12 233.3 12.92 233.3 14.06V27.58C233.3 28.72 234.22 29.64 235.35 29.64H246.69L246.16 27.79L247.44 28.98L248.65 30.1L250.8 32V14.06C250.8 12.92 249.88 12 248.75 12ZM244.89 25.06C244.89 25.06 244.53 24.63 244.23 24.25C245.54 23.88 246.04 23.06 246.04 23.06C245.63 23.33 245.24 23.52 244.89 23.65C244.39 23.86 243.91 24 243.44 24.08C242.48 24.26 241.6 24.21 240.85 24.07C240.28 23.96 239.79 23.8 239.38 23.64C239.15 23.55 238.9 23.44 238.65 23.3C238.62 23.28 238.59 23.27 238.56 23.25C238.54 23.24 238.53 23.23 238.52 23.22C238.34 23.12 238.24 23.05 238.24 23.05C238.24 23.05 238.72 23.85 239.99 24.23C239.69 24.61 239.32 25.06 239.32 25.06C237.11 24.99 236.27 23.54 236.27 23.54C236.27 20.32 237.71 17.71 237.71 17.71C239.15 16.63 240.52 16.66 240.52 16.66L240.62 16.78C238.82 17.3 237.99 18.09 237.99 18.09C237.99 18.09 238.21 17.97 238.58 17.8C239.65 17.33 240.5 17.2 240.85 17.17C240.91 17.16 240.96 17.15 241.02 17.15C241.63 17.07 242.32 17.05 243.04 17.13C243.99 17.24 245.01 17.52 246.05 18.09C246.05 18.09 245.26 17.34 243.56 16.82L243.7 16.66C243.7 16.66 245.07 16.63 246.51 17.71C246.51 17.71 247.95 20.32 247.95 23.54C247.95 23.54 247.1 24.99 244.89 25.06V25.06Z" fill="black"/>
<defs>
<clipPath id="clip0_1334_1358">
<rect width="20" height="20" fill="white" transform="translate(67 12)"/>
</clipPath>
<clipPath id="clip1_1334_1358">
<rect width="20" height="20" fill="white" transform="translate(12 12)"/>
</clipPath>
<clipPath id="clip2_1334_1358">
<rect width="20" height="20" fill="white" transform="translate(123 13)"/>
</clipPath>
<clipPath id="clip3_1334_1358">
<rect width="20" height="20" fill="white" transform="translate(177 12)"/>
</clipPath>
</defs>
</svg>
