<svg width="35" height="35" viewBox="0 0 35 35" fill="none" xmlns="http://www.w3.org/2000/svg">
<path d="M0 5C0 2.23858 2.23858 0 5 0H30C32.7614 0 35 2.23858 35 5V30C35 32.7614 32.7614 35 30 35H5C2.23858 35 0 32.7614 0 30V5Z" fill="#C61515"/>
<path d="M10 15C9.17157 15 8.5 15.6716 8.5 16.5C8.5 17.3284 9.17157 18 10 18V15ZM27.0607 17.5607C27.6464 16.9749 27.6464 16.0251 27.0607 15.4393L17.5147 5.8934C16.9289 5.30761 15.9792 5.30761 15.3934 5.8934C14.8076 6.47919 14.8076 7.42893 15.3934 8.01472L23.8787 16.5L15.3934 24.9853C14.8076 25.5711 14.8076 26.5208 15.3934 27.1066C15.9792 27.6924 16.9289 27.6924 17.5147 27.1066L27.0607 17.5607ZM10 18L26 18V15L10 15V18Z" fill="white"/>
</svg>
