<svg width="300" height="300" viewBox="0 0 300 300" fill="none" xmlns="http://www.w3.org/2000/svg">
<g clip-path="url(#clip0_1331_1325)">
<path d="M24.15 7.35C24.15 7.85 24.0833 8.33333 23.95 8.8C23.8167 9.26666 23.5833 9.68333 23.25 10.05C23.1167 10.25 22.8833 10.5167 22.55 10.85C22.2167 11.15 21.7667 11.5833 21.2 12.15C19.8 13.3167 18.4667 14.55 17.2 15.85C15.9667 17.15 14.7667 18.5167 13.6 19.95C13.2 20.4167 12.8 20.9 12.4 21.4C12 21.9 11.6833 22.4167 11.45 22.95C11.2167 23.4833 11.1 24.05 11.1 24.65C11.1333 25.25 11.3833 25.8667 11.85 26.5C12.6833 27.6667 13.5667 28.7833 14.5 29.85C15.4333 30.9167 16.4333 31.9667 17.5 33C18.1333 33.6667 18.7667 34.3167 19.4 34.95C20.0667 35.5833 20.7 36.2167 21.3 36.85C22.1 37.65 22.5833 38.5 22.75 39.4C22.9167 40.2667 22.8333 41.0333 22.5 41.7C22.1667 42.3667 21.6167 42.85 20.85 43.15C20.1167 43.45 19.2333 43.4 18.2 43C17.6667 42.7667 17.15 42.45 16.65 42.05C16.15 41.6833 15.6667 41.2667 15.2 40.8C14.7333 40.3 14.2833 39.8 13.85 39.3C13.4167 38.8 13.0167 38.3333 12.65 37.9C6.38333 31 3.25 26.4333 3.25 24.2C3.25 22.5 4.46667 20.0333 6.9 16.8C7.83333 15.6333 8.86667 14.4167 10 13.15C11.1333 11.85 12.4 10.5667 13.8 9.3C14.6667 8.43333 15.55 7.58333 16.45 6.75C17.3833 5.88333 18.4 5.15 19.5 4.55C19.9667 4.31667 20.4667 4.21666 21 4.25C21.5667 4.25 22.0833 4.38333 22.55 4.65C23.0167 4.88333 23.4 5.23333 23.7 5.7C24 6.16667 24.15 6.71667 24.15 7.35Z" fill="#4857EC"/>
<path d="M52.85 40.65C52.85 40.15 52.9167 39.6667 53.05 39.2C53.1833 38.7333 53.4167 38.3167 53.75 37.95C53.8833 37.75 54.1167 37.4833 54.45 37.15C54.7833 36.85 55.2333 36.4167 55.8 35.85C57.2 34.6833 58.5333 33.45 59.8 32.15C61.0333 30.85 62.2333 29.4833 63.4 28.05C63.8 27.5833 64.2 27.1 64.6 26.6C65 26.1 65.3167 25.5833 65.55 25.05C65.7833 24.5167 65.9 23.95 65.9 23.35C65.8667 22.75 65.6167 22.1333 65.15 21.5C64.3167 20.3333 63.4333 19.2167 62.5 18.15C61.5667 17.0833 60.5667 16.0333 59.5 15C58.8667 14.3333 58.2333 13.6833 57.6 13.05C56.9333 12.4167 56.3 11.7833 55.7 11.15C54.9 10.35 54.4167 9.5 54.25 8.6C54.0833 7.73333 54.1667 6.96666 54.5 6.3C54.8333 5.63333 55.3833 5.15 56.15 4.85C56.8833 4.55 57.7667 4.6 58.8 5C59.3333 5.23333 59.85 5.55 60.35 5.95C60.85 6.31667 61.3333 6.73333 61.8 7.2C62.2667 7.7 62.7167 8.2 63.15 8.7C63.5833 9.2 63.9833 9.66667 64.35 10.1C70.6167 17 73.75 21.5667 73.75 23.8C73.75 25.5 72.5333 27.9667 70.1 31.2C69.1667 32.3667 68.1333 33.5833 67 34.85C65.8667 36.15 64.6 37.4333 63.2 38.7C62.3333 39.5667 61.45 40.4167 60.55 41.25C59.6167 42.1167 58.6 42.85 57.5 43.45C57.0333 43.6833 56.5333 43.7833 56 43.75C55.4333 43.75 54.9167 43.6167 54.45 43.35C53.9833 43.1167 53.6 42.7667 53.3 42.3C53 41.8333 52.85 41.2833 52.85 40.65Z" fill="#4857EC"/>
</g>
<defs>
<clipPath id="clip0_1331_1325">
<rect width="300" height="300" fill="white"/>
</clipPath>
</defs>
</svg>
