<svg width="300" height="39" viewBox="0 0 300 39" fill="none" xmlns="http://www.w3.org/2000/svg">
<g clip-path="url(#clip0_664_252)">
<rect width="300" height="39" fill="#B38E8E"/>
<circle cx="18" cy="18" r="18" fill="white"/>
<circle cx="68" cy="18" r="18" fill="white"/>
<circle cx="118" cy="18" r="18" fill="white"/>
<circle cx="168" cy="18" r="18" fill="white"/>
<circle cx="218" cy="18" r="18" fill="white"/>
<g clip-path="url(#clip1_664_252)">
<path d="M19 10.6667L16.0667 13.6L17.5333 15.0667L20.4667 12.1333C21.6767 10.9233 23.6567 10.9233 24.8667 12.1333C26.0767 13.3433 26.0767 15.3233 24.8667 16.5333L21.9333 19.4667L23.4 20.9334L26.3334 18C28.3574 15.976 28.3574 12.6907 26.3334 10.6667C24.3094 8.64265 21.024 8.64265 19 10.6667ZM20.4667 20.9334L17.5333 23.8667C16.3233 25.0767 14.3433 25.0767 13.1333 23.8667C11.9233 22.6567 11.9233 20.6767 13.1333 19.4667L16.0667 16.5333L14.6 15.0667L11.6666 18C9.64264 20.024 9.64264 23.3094 11.6666 25.3334C13.6907 27.3574 16.976 27.3574 19 25.3334L21.9333 22.4L20.4667 20.9334ZM15.3333 20.2L21.2 14.3333L22.6667 15.8L16.8 21.6667L15.3333 20.2Z" fill="#8D8D8D"/>
</g>
<path d="M168 7C161.924 7 157 11.9242 157 18C157 22.6621 159.9 26.641 163.991 28.2437C163.896 27.3715 163.806 26.0395 164.03 25.0898C164.232 24.2305 165.319 19.6242 165.319 19.6242C165.319 19.6242 164.988 18.9668 164.988 17.9914C164.988 16.4617 165.873 15.3188 166.977 15.3188C167.914 15.3188 168.37 16.0234 168.37 16.8699C168.37 17.8152 167.768 19.2246 167.459 20.5309C167.201 21.6266 168.009 22.5203 169.087 22.5203C171.042 22.5203 172.546 20.4578 172.546 17.4844C172.546 14.8504 170.655 13.007 167.953 13.007C164.825 13.007 162.986 15.3531 162.986 17.7809C162.986 18.7262 163.351 19.7402 163.806 20.2902C163.896 20.3977 163.909 20.4965 163.884 20.6039C163.802 20.952 163.613 21.6996 163.579 21.85C163.531 22.052 163.42 22.0949 163.209 21.9961C161.834 21.3559 160.975 19.3492 160.975 17.7336C160.975 14.2617 163.497 11.0777 168.241 11.0777C172.056 11.0777 175.021 13.7977 175.021 17.4328C175.021 21.2227 172.632 24.2734 169.315 24.2734C168.202 24.2734 167.154 23.6934 166.793 23.0102C166.793 23.0102 166.243 25.1113 166.109 25.627C165.86 26.5809 165.19 27.7797 164.743 28.5102C165.774 28.8281 166.866 29 168 29C174.076 29 179 24.0758 179 18C179 11.9242 174.076 7 168 7Z" fill="#8D8D8D"/>
<path d="M222.65 7H218.942V21.9855C218.942 23.771 217.516 25.2377 215.742 25.2377C213.967 25.2377 212.541 23.771 212.541 21.9855C212.541 20.2319 213.935 18.7971 215.647 18.7333V14.971C211.875 15.0348 208.833 18.1275 208.833 21.9855C208.833 25.8754 211.939 29 215.773 29C219.608 29 222.713 25.8435 222.713 21.9855V14.3014C224.108 15.3217 225.819 15.9275 227.625 15.9594V12.1971C224.836 12.1015 222.65 9.80579 222.65 7Z" fill="#8D8D8D"/>
<path d="M80 17C80 10.3726 74.6274 5 68 5C61.3726 5 56 10.3726 56 17C56 22.9895 60.3882 27.954 66.125 28.8542V20.4688H63.0781V17H66.125V14.3563C66.125 11.3488 67.9166 9.6875 70.6576 9.6875C71.9701 9.6875 73.3438 9.92188 73.3438 9.92188V12.875H71.8306C70.34 12.875 69.875 13.8001 69.875 14.75V17H73.2031L72.6711 20.4688H69.875V28.8542C75.6118 27.954 80 22.9895 80 17Z" fill="#8D8D8D"/>
<path d="M118 8.98086C120.939 8.98086 121.287 8.99375 122.443 9.04531C123.517 9.09258 124.097 9.27305 124.484 9.42344C124.995 9.62109 125.365 9.86172 125.747 10.2441C126.134 10.6309 126.37 10.9961 126.568 11.5074C126.718 11.8941 126.899 12.4785 126.946 13.5484C126.998 14.7086 127.011 15.0566 127.011 17.9914C127.011 20.9305 126.998 21.2785 126.946 22.4344C126.899 23.5086 126.718 24.0887 126.568 24.4754C126.37 24.9867 126.13 25.3563 125.747 25.7387C125.361 26.1254 124.995 26.3617 124.484 26.5594C124.097 26.7098 123.513 26.8902 122.443 26.9375C121.283 26.9891 120.935 27.002 118 27.002C115.061 27.002 114.713 26.9891 113.557 26.9375C112.483 26.8902 111.903 26.7098 111.516 26.5594C111.005 26.3617 110.635 26.1211 110.253 25.7387C109.866 25.352 109.63 24.9867 109.432 24.4754C109.282 24.0887 109.101 23.5043 109.054 22.4344C109.002 21.2742 108.989 20.9262 108.989 17.9914C108.989 15.0523 109.002 14.7043 109.054 13.5484C109.101 12.4742 109.282 11.8941 109.432 11.5074C109.63 10.9961 109.87 10.6266 110.253 10.2441C110.639 9.85742 111.005 9.62109 111.516 9.42344C111.903 9.27305 112.487 9.09258 113.557 9.04531C114.713 8.99375 115.061 8.98086 118 8.98086ZM118 7C115.014 7 114.64 7.01289 113.467 7.06445C112.298 7.11602 111.495 7.30508 110.798 7.57578C110.072 7.85937 109.458 8.2332 108.848 8.84766C108.233 9.45781 107.859 10.0723 107.576 10.7941C107.305 11.4945 107.116 12.2937 107.064 13.4625C107.013 14.6398 107 15.0137 107 18C107 20.9863 107.013 21.3602 107.064 22.5332C107.116 23.702 107.305 24.5055 107.576 25.2016C107.859 25.9277 108.233 26.5422 108.848 27.1523C109.458 27.7625 110.072 28.1406 110.794 28.4199C111.495 28.6906 112.294 28.8797 113.463 28.9312C114.636 28.9828 115.009 28.9957 117.996 28.9957C120.982 28.9957 121.356 28.9828 122.529 28.9312C123.698 28.8797 124.501 28.6906 125.197 28.4199C125.919 28.1406 126.534 27.7625 127.144 27.1523C127.754 26.5422 128.132 25.9277 128.411 25.2059C128.682 24.5055 128.871 23.7063 128.923 22.5375C128.974 21.3645 128.987 20.9906 128.987 18.0043C128.987 15.018 128.974 14.6441 128.923 13.4711C128.871 12.3023 128.682 11.4988 128.411 10.8027C128.141 10.0723 127.767 9.45781 127.152 8.84766C126.542 8.2375 125.928 7.85938 125.206 7.58008C124.505 7.30937 123.706 7.12031 122.538 7.06875C121.36 7.01289 120.986 7 118 7Z" fill="#8D8D8D"/>
<path d="M118 12.3496C114.88 12.3496 112.35 14.8805 112.35 18C112.35 21.1195 114.88 23.6504 118 23.6504C121.12 23.6504 123.65 21.1195 123.65 18C123.65 14.8805 121.12 12.3496 118 12.3496ZM118 21.6652C115.976 21.6652 114.335 20.0238 114.335 18C114.335 15.9762 115.976 14.3348 118 14.3348C120.024 14.3348 121.665 15.9762 121.665 18C121.665 20.0238 120.024 21.6652 118 21.6652Z" fill="#8D8D8D"/>
<path d="M125.193 12.1261C125.193 12.8566 124.6 13.4453 123.874 13.4453C123.143 13.4453 122.555 12.8523 122.555 12.1261C122.555 11.3957 123.148 10.807 123.874 10.807C124.6 10.807 125.193 11.4 125.193 12.1261Z" fill="#8D8D8D"/>
</g>
<defs>
<clipPath id="clip0_664_252">
<rect width="300" height="39" fill="white"/>
</clipPath>
<clipPath id="clip1_664_252">
<rect width="22" height="22" fill="white" transform="translate(8 7)"/>
</clipPath>
</defs>
</svg>
