<svg width="50" height="50" viewBox="0 0 50 50" fill="none" xmlns="http://www.w3.org/2000/svg">
<g clip-path="url(#clip0_649_161)">
<path fill-rule="evenodd" clip-rule="evenodd" d="M50.01 45.8603C50.01 48.0513 48.2295 49.826 46.0211 49.826H4.25211C2.05368 49.826 0.263153 48.0513 0.263153 45.8603V4.22894C0.263153 2.03789 2.05368 0.263153 4.25211 0.263153H46.0211C48.2195 0.263153 50.01 2.03789 50.01 4.22894V45.8603Z" fill="url(#paint0_radial_649_161)"/>
<path fill-rule="evenodd" clip-rule="evenodd" d="M32.1763 6.3158H17.8337C11.47 6.3158 6.3158 11.5063 6.3158 17.9147V32.3584C6.3158 38.7669 11.47 43.9574 17.8337 43.9574H32.1763C38.5397 43.9574 43.6942 38.7669 43.6942 32.3584V17.9147C43.6942 11.5063 38.5397 6.3158 32.1763 6.3158ZM40.1061 30.9711C40.1061 36.1516 35.9429 40.344 30.7984 40.344H19.2016C14.0571 40.344 9.89395 36.1516 9.89395 30.9711V19.3021C9.89395 14.1316 14.0571 9.92921 19.2016 9.92921H30.7984C35.9329 9.92921 40.1061 14.1316 40.1061 19.3021V30.9711Z" fill="white"/>
<path fill-rule="evenodd" clip-rule="evenodd" d="M25.4247 15.2632C19.9521 15.2632 15.5263 19.699 15.5263 25.1616C15.5263 30.624 19.9621 35.0598 25.4247 35.0598C30.8971 35.0598 35.3229 30.624 35.3229 25.1616C35.3329 19.689 30.8971 15.2632 25.4247 15.2632ZM25.4247 31.1224C22.1353 31.1224 19.4637 28.4511 19.4637 25.1616C19.4637 21.8721 22.1253 19.2006 25.4247 19.2006C28.7142 19.2006 31.3855 21.8621 31.3855 25.1616C31.3855 28.4511 28.7142 31.1224 25.4247 31.1224Z" fill="white"/>
<path fill-rule="evenodd" clip-rule="evenodd" d="M37.1553 15.1616C37.1553 16.5516 36.0253 17.6916 34.6253 17.6916C33.2353 17.6916 32.1053 16.5616 32.1053 15.1616C32.1053 13.7716 33.2353 12.6316 34.6253 12.6316C36.0253 12.6416 37.1553 13.7716 37.1553 15.1616Z" fill="white"/>
</g>
<defs>
<radialGradient id="paint0_radial_649_161" cx="0" cy="0" r="1" gradientUnits="userSpaceOnUse" gradientTransform="translate(0.263153 49.8261) scale(70.2228 70.2228)">
<stop stop-color="#FED378"/>
<stop offset="0.17" stop-color="#FED378"/>
<stop offset="0.42" stop-color="#DD5666"/>
<stop offset="0.61" stop-color="#CA3592"/>
<stop offset="1" stop-color="#8159A6"/>
</radialGradient>
<clipPath id="clip0_649_161">
<rect width="50" height="50" rx="25" fill="white"/>
</clipPath>
</defs>
</svg>
