<svg width="300" height="300" viewBox="0 0 300 300" fill="none" xmlns="http://www.w3.org/2000/svg">
<rect width="300" height="300" fill="white"/>
<circle cx="30" cy="30" r="30" fill="#FF9292"/>
<path d="M38 24H22" stroke="white" stroke-width="1.5" stroke-linecap="round"/>
<path d="M38 30H22" stroke="white" stroke-width="1.5" stroke-linecap="round"/>
<path d="M38 36H22" stroke="white" stroke-width="1.5" stroke-linecap="round"/>
<circle cx="130" cy="30" r="30" fill="#FFC092"/>
<rect x="120" y="20" width="20" height="20" rx="5" stroke="white" stroke-width="1.5"/>
<path d="M120.064 34.8897C119.727 35.1305 119.649 35.5989 119.89 35.9359C120.13 36.273 120.599 36.3511 120.936 36.1103L120.064 34.8897ZM139.52 34.5762C139.838 34.8413 140.311 34.7983 140.576 34.4801C140.841 34.1619 140.798 33.689 140.48 33.4238L139.52 34.5762ZM125.078 34.0782L124.548 34.6085L125.078 34.0782ZM120.936 36.1103L123.195 34.4966L122.323 33.276L120.064 34.8897L120.936 36.1103ZM124.548 34.6085L125.621 35.6818L126.682 34.6211L125.609 33.5479L124.548 34.6085ZM128.379 35.6818L133.368 30.6927L132.307 29.632L127.318 34.6211L128.379 35.6818ZM134.783 30.6285L139.52 34.5762L140.48 33.4238L135.743 29.4762L134.783 30.6285ZM133.368 30.6927C133.752 30.3087 134.365 30.2808 134.783 30.6285L135.743 29.4762C134.73 28.6318 133.24 28.6994 132.307 29.632L133.368 30.6927ZM125.621 35.6818C126.383 36.4433 127.617 36.4433 128.379 35.6818L127.318 34.6211C127.142 34.7969 126.858 34.7969 126.682 34.6211L125.621 35.6818ZM123.195 34.4966C123.613 34.1983 124.185 34.2456 124.548 34.6085L125.609 33.5479C124.727 32.6664 123.338 32.5515 122.323 33.276L123.195 34.4966Z" fill="white"/>
<circle r="2" transform="matrix(-1 0 0 1 126 26)" stroke="white" stroke-width="1.5"/>
<circle cx="230" cy="30" r="30" fill="#F9CD5B"/>
<path d="M236 34V36C236 38.2091 234.209 40 232 40H227C224.791 40 223 38.2091 223 36V24C223 21.7909 224.791 20 227 20H232C234.209 20 236 21.7909 236 24V26" stroke="white" stroke-width="1.5" stroke-linecap="round"/>
<path d="M239 33L241.293 30.7071C241.683 30.3166 241.683 29.6834 241.293 29.2929L239 27" stroke="white" stroke-width="1.5" stroke-linecap="round"/>
<path d="M241 30L229 30" stroke="white" stroke-width="1.5" stroke-linecap="round"/>
<circle cx="30" cy="130" r="30" fill="#B5E44F"/>
<path d="M40 127V135C40 137.761 37.7614 140 35 140H25C22.2386 140 20 137.761 20 135V125C20 122.239 22.2386 120 25 120H34" stroke="white" stroke-width="1.5" stroke-linecap="round"/>
<circle r="2" transform="matrix(-1 0 0 1 39 122)" stroke="white" stroke-width="1.5"/>
<path d="M25 132.75L28.5 128.75L31.5 131.25L35 127.25" stroke="white" stroke-width="1.5" stroke-linecap="round" stroke-linejoin="round"/>
<circle cx="130" cy="130" r="30" fill="#92CAFF"/>
<rect x="120" y="122" width="20" height="16" rx="5" stroke="white" stroke-width="1.5"/>
<path d="M120 127.5H140" stroke="white" stroke-width="1.5" stroke-linecap="round" stroke-linejoin="round"/>
<path d="M124 133.5H129" stroke="white" stroke-width="1.5" stroke-linecap="round" stroke-linejoin="round"/>
<circle cx="230" cy="130" r="30" fill="#B592FF"/>
<path d="M223 121.5H237V137.466C237 138.296 236.047 138.765 235.389 138.257L234.058 137.231C233.724 136.972 233.262 136.953 232.907 137.181L231.082 138.355C230.423 138.778 229.577 138.778 228.918 138.355L227.093 137.181C226.738 136.953 226.276 136.972 225.942 137.231L224.611 138.257C223.953 138.765 223 138.296 223 137.466V121.5Z" stroke="white" stroke-width="1.5"/>
<path d="M227 127.5H230" stroke="white" stroke-width="1.5" stroke-linecap="round" stroke-linejoin="round"/>
<path d="M221 121.5H239" stroke="white" stroke-width="1.5" stroke-linecap="round" stroke-linejoin="round"/>
<path d="M227 131.5H230" stroke="white" stroke-width="1.5" stroke-linecap="round" stroke-linejoin="round"/>
<path d="M233 127.5H233.5" stroke="white" stroke-width="1.5" stroke-linecap="round" stroke-linejoin="round"/>
<path d="M233 131.5H233.5" stroke="white" stroke-width="1.5" stroke-linecap="round" stroke-linejoin="round"/>
</svg>
