<svg width="60" height="60" viewBox="0 0 60 60" fill="none" xmlns="http://www.w3.org/2000/svg">
<circle cx="30" cy="30" r="30" fill="#FFC092"/>
<rect x="20" y="20" width="20" height="20" rx="5" stroke="white" stroke-width="1.5"/>
<path d="M20.0641 34.8897C19.727 35.1305 19.6489 35.5989 19.8897 35.9359C20.1305 36.273 20.5989 36.3511 20.9359 36.1103L20.0641 34.8897ZM39.5199 34.5762C39.8381 34.8413 40.311 34.7983 40.5762 34.4801C40.8413 34.1619 40.7983 33.689 40.4801 33.4238L39.5199 34.5762ZM25.0782 34.0782L24.5479 34.6085L25.0782 34.0782ZM20.9359 36.1103L23.1951 34.4966L22.3233 33.276L20.0641 34.8897L20.9359 36.1103ZM24.5479 34.6085L25.6211 35.6818L26.6818 34.6211L25.6085 33.5479L24.5479 34.6085ZM28.3789 35.6818L33.368 30.6927L32.3073 29.632L27.3182 34.6211L28.3789 35.6818ZM34.7827 30.6285L39.5199 34.5762L40.4801 33.4238L35.7429 29.4762L34.7827 30.6285ZM33.368 30.6927C33.752 30.3087 34.3655 30.2808 34.7827 30.6285L35.7429 29.4762C34.7297 28.6318 33.2399 28.6994 32.3073 29.632L33.368 30.6927ZM25.6211 35.6818C26.3827 36.4433 27.6173 36.4433 28.3789 35.6818L27.3182 34.6211C27.1425 34.7969 26.8575 34.7969 26.6818 34.6211L25.6211 35.6818ZM23.1951 34.4966C23.6128 34.1983 24.1849 34.2456 24.5479 34.6085L25.6085 33.5479C24.7271 32.6664 23.3376 32.5515 22.3233 33.276L23.1951 34.4966Z" fill="white"/>
<circle r="2" transform="matrix(-1 0 0 1 26 26)" stroke="white" stroke-width="1.5"/>
</svg>
