<svg width="300" height="300" viewBox="0 0 300 300" fill="none" xmlns="http://www.w3.org/2000/svg">
<rect width="300" height="300" fill="white"/>
<path d="M20.1271 40.0781L24.0825 38.76L24.7856 39.0825C26.3875 39.9031 28.1259 40.3134 30.0009 40.3134C33.1846 40.2159 35.8359 39.1759 37.9546 37.1934C40.0734 35.2109 41.1721 32.8134 41.2509 30.0009C41.1728 27.1884 40.074 24.7909 37.9546 22.8084C35.8353 20.8259 33.184 19.7859 30.0009 19.6884C26.8171 19.7859 24.1659 20.8259 22.0471 22.8084C19.9284 24.7909 18.8296 27.1884 18.7509 30.0009C18.7509 31.0165 18.9268 32.0225 19.2787 33.0187C19.6306 34.015 20.1481 34.9525 20.8312 35.8312L21.4762 36.6806L20.1271 40.0781ZM18.779 42.4809C18.4078 42.5984 18.0903 42.5153 17.8265 42.2315C17.5628 41.9478 17.4993 41.6206 17.6362 41.25L19.3359 36.9721C18.5546 35.9371 17.949 34.8287 17.519 33.6468C17.089 32.465 16.874 31.249 16.874 29.999C16.9521 26.7765 18.2021 23.969 20.624 21.5765C23.0459 19.184 26.1709 17.929 29.999 17.8115C33.8271 17.929 36.9521 19.184 39.374 21.5765C41.7959 23.969 43.0459 26.7765 43.124 29.999C43.0459 33.2215 41.7959 36.029 39.374 38.4215C36.9521 40.814 33.8271 42.069 29.999 42.1865C27.8703 42.1865 25.8487 41.7178 23.9343 40.7803L18.779 42.4809ZM30 31.4943C29.7262 31.4943 29.4771 31.4309 29.2528 31.304C29.0284 31.1771 28.8478 30.9915 28.7109 30.7471C28.574 30.5028 28.5056 30.2537 28.5056 30C28.5056 29.7462 28.574 29.4971 28.7109 29.2528C28.8478 29.0084 29.0284 28.8228 29.2528 28.6959C29.4771 28.569 29.7262 28.5056 30 28.5056C30.43 28.5056 30.7865 28.6471 31.0696 28.9303C31.3528 29.2134 31.4943 29.57 31.4943 30C31.4943 30.43 31.3528 30.7865 31.0696 31.0696C30.7865 31.3528 30.43 31.4943 30 31.4943V31.4943ZM35.625 31.4943C35.3512 31.4943 35.1021 31.4309 34.8778 31.304C34.6534 31.1771 34.4728 30.9915 34.3359 30.7471C34.199 30.5028 34.1306 30.2537 34.1306 30C34.1306 29.7462 34.199 29.4971 34.3359 29.2528C34.4728 29.0084 34.6534 28.8228 34.8778 28.6959C35.1021 28.569 35.3512 28.5056 35.625 28.5056C36.055 28.5056 36.4115 28.6471 36.6946 28.9303C36.9778 29.2134 37.1193 29.57 37.1193 30C37.1193 30.43 36.9778 30.7865 36.6946 31.0696C36.4115 31.3528 36.055 31.4943 35.625 31.4943V31.4943ZM24.375 31.4943C24.1012 31.4943 23.8521 31.4309 23.6278 31.304C23.4034 31.1771 23.2228 30.9915 23.0859 30.7471C22.949 30.5028 22.8806 30.2537 22.8806 30C22.8806 29.7462 22.949 29.4971 23.0859 29.2528C23.2228 29.0084 23.4034 28.8228 23.6278 28.6959C23.8521 28.569 24.1012 28.5056 24.375 28.5056C24.805 28.5056 25.1615 28.6471 25.4446 28.9303C25.7278 29.2134 25.8693 29.57 25.8693 30C25.8693 30.43 25.7278 30.7865 25.4446 31.0696C25.1615 31.3528 24.805 31.4943 24.375 31.4943V31.4943Z" fill="#08080A" fill-opacity="0.96"/>
<circle cx="30" cy="30" r="30" fill="#48EC9D" fill-opacity="0.2"/>
<rect x="160" y="217" width="80" height="19" fill="#D9D9D9"/>
<path d="M110 30C111.602 29.9606 112.93 29.4138 113.984 28.3594C115.039 27.305 115.586 25.9769 115.625 24.375C115.586 22.7731 115.039 21.445 113.984 20.3906C112.93 19.3362 111.602 18.7894 110 18.75C108.398 18.7894 107.07 19.3362 106.016 20.3906C104.961 21.445 104.414 22.7731 104.375 24.375C104.414 25.9769 104.961 27.305 106.016 28.3594C107.07 29.4138 108.398 29.9606 110 30ZM110 31.875C107.871 31.8162 106.104 31.0838 104.697 29.6775C103.291 28.2713 102.559 26.5037 102.5 24.375C102.559 22.2463 103.291 20.4787 104.697 19.0725C106.104 17.6662 107.871 16.9338 110 16.875C112.129 16.9338 113.896 17.6662 115.303 19.0725C116.709 20.4787 117.441 22.2463 117.5 24.375C117.441 26.5037 116.709 28.2713 115.303 29.6775C113.896 31.0838 112.129 31.8162 110 31.875ZM110 30C110.274 30 110.498 30.0878 110.674 30.2634C110.85 30.4391 110.938 30.6638 110.938 30.9375V38.4375C110.938 38.7112 110.85 38.9359 110.674 39.1116C110.498 39.2872 110.274 39.375 110 39.375C109.726 39.375 109.502 39.2872 109.326 39.1116C109.15 38.9359 109.062 38.7112 109.062 38.4375V30.9375C109.062 30.6638 109.15 30.4391 109.326 30.2634C109.502 30.0878 109.726 30 110 30V30ZM106.25 34.0134V35.9175C104.551 36.2106 103.193 36.5962 102.178 37.0744C101.162 37.5525 100.644 38.0066 100.625 38.4366C100.684 39.0422 101.587 39.6525 103.335 40.2675C105.083 40.8825 107.305 41.2097 110 41.2491C112.696 41.2097 114.917 40.8825 116.665 40.2675C118.412 39.6525 119.316 39.0422 119.375 38.4366C119.356 38.0066 118.838 37.5525 117.822 37.0744C116.807 36.5962 115.449 36.2106 113.75 35.9175V34.0134C115.977 34.3453 117.774 34.9069 119.141 35.6981C120.507 36.4894 121.211 37.4025 121.25 38.4375C121.172 39.7656 120.073 40.8691 117.954 41.7478C115.834 42.6266 113.183 43.0856 110 43.125C106.816 43.0856 104.165 42.6266 102.046 41.7478C99.9275 40.8691 98.8287 39.7656 98.75 38.4375C98.7894 37.4025 99.4925 36.4894 100.859 35.6981C102.226 34.9069 104.023 34.3453 106.25 34.0134Z" fill="#08080A" fill-opacity="0.96"/>
<circle cx="110" cy="30" r="30" fill="#8DFF33" fill-opacity="0.2"/>
<path d="M265.518 37.5H259.688C259.414 37.5 259.189 37.4122 259.013 37.2366C258.838 37.0609 258.75 36.8363 258.75 36.5625V20.625H256.875C256.601 20.625 256.377 20.5372 256.201 20.3616C256.025 20.1859 255.938 19.9613 255.938 19.6875C255.938 19.4137 256.025 19.1891 256.201 19.0134C256.377 18.8378 256.601 18.75 256.875 18.75H283.125C283.399 18.75 283.623 18.8378 283.799 19.0134C283.975 19.1891 284.062 19.4137 284.062 19.6875C284.062 19.9613 283.975 20.1859 283.799 20.3616C283.623 20.5372 283.399 20.625 283.125 20.625H281.25V36.5625C281.25 36.8363 281.162 37.0609 280.987 37.2366C280.811 37.4122 280.586 37.5 280.312 37.5H274.482L277.734 43.125H275.566L272.314 37.5H267.684L264.432 43.125H262.264L265.518 37.5ZM279.375 20.625H260.625V35.625H279.375V20.625ZM265.049 30.6741C264.853 30.8497 264.629 30.9375 264.375 30.9375C264.121 30.9375 263.902 30.8447 263.716 30.6591C263.53 30.4734 263.438 30.2537 263.438 30C263.438 29.7463 263.525 29.5216 263.701 29.3259L268.037 25.0191L271.699 27.7734L274.892 23.7891C275.126 23.4959 275.424 23.3738 275.785 23.4225C276.147 23.4713 276.391 23.6666 276.517 24.0084C276.644 24.3503 276.591 24.6678 276.356 24.9609L272.049 30.3516L268.211 27.48L265.049 30.6741Z" fill="#08080A" fill-opacity="0.96"/>
<circle cx="270" cy="30" r="30" fill="#4857EC" fill-opacity="0.2"/>
<path d="M178.75 26.25V39.375H201.25V26.25H178.75ZM177.812 24.375H202.188C202.461 24.375 202.686 24.4628 202.862 24.6384C203.037 24.8141 203.125 25.0388 203.125 25.3125V40.3125C203.125 40.5862 203.037 40.8109 202.862 40.9866C202.686 41.1622 202.461 41.25 202.188 41.25H177.812C177.539 41.25 177.314 41.1622 177.138 40.9866C176.963 40.8109 176.875 40.5862 176.875 40.3125V25.3125C176.875 25.0388 176.963 24.8141 177.138 24.6384C177.314 24.4628 177.539 24.375 177.812 24.375ZM179.688 20.625H200.312V22.5H179.688V20.625ZM182.5 16.875H197.5V18.75H182.5V16.875Z" fill="#08080A" fill-opacity="0.96"/>
<circle cx="190" cy="30" r="30" fill="#F76D6D" fill-opacity="0.2"/>
<path d="M31.08 111.423C29.8822 112.532 28.258 113.155 26.5643 113.155C24.8707 113.155 23.2464 112.532 22.0486 111.423M21.774 104.285H21.79M31.3547 104.285H31.3706M40.9353 107.242C40.9353 108.99 40.5636 110.72 39.8414 112.334C39.1192 113.949 38.0606 115.416 36.7261 116.651C35.3917 117.887 33.8074 118.867 32.0639 119.536C30.3203 120.205 28.4515 120.549 26.5643 120.549C24.6771 120.549 22.8084 120.205 21.0648 119.536C19.3212 118.867 17.737 117.887 16.4025 116.651C15.0681 115.416 14.0095 113.949 13.2873 112.334C12.5651 110.72 12.1934 108.99 12.1934 107.242C12.1934 103.713 13.7074 100.328 16.4025 97.833C19.0976 95.3375 22.7529 93.9355 26.5643 93.9355C30.3757 93.9355 34.0311 95.3375 36.7261 97.833C39.4212 100.328 40.9353 103.713 40.9353 107.242Z" stroke="#4857EC" stroke-width="3" stroke-linecap="round" stroke-linejoin="round"/>
<circle cx="27" cy="107" r="27" fill="#4857EC" fill-opacity="0.1"/>
<circle cx="107" cy="107" r="27" fill="#FFD6D6" fill-opacity="0.5"/>
<path d="M111.08 111.423C109.882 112.532 108.258 113.155 106.564 113.155C104.871 113.155 103.246 112.532 102.049 111.423M101.774 104.285H101.79M111.355 104.285H111.371M120.935 107.242C120.935 108.99 120.564 110.72 119.841 112.334C119.119 113.949 118.061 115.416 116.726 116.651C115.392 117.887 113.807 118.867 112.064 119.536C110.32 120.205 108.452 120.549 106.564 120.549C104.677 120.549 102.808 120.205 101.065 119.536C99.3212 118.867 97.737 117.887 96.4025 116.651C95.0681 115.416 94.0095 113.949 93.2873 112.334C92.5651 110.72 92.1934 108.99 92.1934 107.242C92.1934 103.713 93.7074 100.328 96.4025 97.833C99.0976 95.3375 102.753 93.9355 106.564 93.9355C110.376 93.9355 114.031 95.3375 116.726 97.833C119.421 100.328 120.935 103.713 120.935 107.242Z" stroke="#C66464" stroke-width="3" stroke-linecap="round" stroke-linejoin="round"/>
<circle cx="187" cy="107" r="27" fill="#BCFF87" fill-opacity="0.5"/>
<path d="M199.841 112.334C200.564 110.72 200.935 108.99 200.935 107.242C200.935 103.713 199.421 100.328 196.726 97.833C194.031 95.3375 190.376 93.9355 186.564 93.9355C182.753 93.9355 179.098 95.3375 176.403 97.833C173.707 100.328 172.193 103.713 172.193 107.242C172.193 108.99 172.565 110.72 173.287 112.334C174.009 113.949 175.068 115.416 176.403 116.651C177.737 117.887 179.321 118.867 181.065 119.536C182.808 120.205 184.677 120.549 186.564 120.549C188.452 120.549 190.32 120.205 192.064 119.536C193.807 118.867 195.392 117.887 196.726 116.651C198.061 115.416 199.119 113.949 199.841 112.334Z" fill="#E8FFD6"/>
<path d="M191.08 111.423C189.882 112.532 188.258 113.155 186.564 113.155C184.871 113.155 183.246 112.532 182.049 111.423M181.774 104.285H181.79M191.355 104.285H191.371M200.935 107.242C200.935 108.99 200.564 110.72 199.841 112.334C199.119 113.949 198.061 115.416 196.726 116.651C195.392 117.887 193.807 118.867 192.064 119.536C190.32 120.205 188.452 120.549 186.564 120.549C184.677 120.549 182.808 120.205 181.065 119.536C179.321 118.867 177.737 117.887 176.403 116.651C175.068 115.416 174.009 113.949 173.287 112.334C172.565 110.72 172.193 108.99 172.193 107.242C172.193 103.713 173.707 100.328 176.403 97.833C179.098 95.3375 182.753 93.9355 186.564 93.9355C190.376 93.9355 194.031 95.3375 196.726 97.833C199.421 100.328 200.935 103.713 200.935 107.242Z" stroke="#6AAF35" stroke-width="3" stroke-linecap="round" stroke-linejoin="round"/>
<rect x="69" y="80" width="4" height="80" fill="#D9D9D9"/>
<path d="M186.641 160.537C186.39 159.821 185.296 159.821 185.044 160.537L183.768 164.172C183.713 164.328 183.606 164.464 183.463 164.561C183.319 164.657 183.146 164.709 182.969 164.709H178.842C178.029 164.709 177.689 165.673 178.348 166.117L181.687 168.363C181.831 168.459 181.938 168.595 181.992 168.752C182.047 168.908 182.047 169.076 181.992 169.232L180.717 172.867C180.465 173.584 181.351 174.18 182.009 173.737L185.349 171.491C185.492 171.394 185.665 171.342 185.842 171.342C186.02 171.342 186.193 171.394 186.336 171.491L189.676 173.737C190.334 174.18 191.22 173.584 190.968 172.867L189.693 169.232C189.638 169.076 189.638 168.908 189.693 168.752C189.747 168.595 189.854 168.459 189.998 168.363L193.337 166.117C193.995 165.673 193.657 164.709 192.843 164.709H188.715C188.538 164.709 188.365 164.657 188.222 164.56C188.079 164.464 187.972 164.328 187.917 164.172L186.641 160.537Z" fill="#F9C94E"/>
<path d="M168.641 160.537C168.39 159.821 167.296 159.821 167.044 160.537L165.768 164.172C165.713 164.328 165.606 164.464 165.463 164.561C165.319 164.657 165.146 164.709 164.969 164.709H160.842C160.029 164.709 159.689 165.673 160.348 166.117L163.687 168.363C163.831 168.459 163.938 168.595 163.992 168.752C164.047 168.908 164.047 169.076 163.992 169.232L162.717 172.867C162.465 173.584 163.351 174.18 164.009 173.737L167.349 171.491C167.492 171.394 167.665 171.342 167.842 171.342C168.02 171.342 168.193 171.394 168.336 171.491L171.676 173.737C172.334 174.18 173.22 173.584 172.968 172.867L171.693 169.232C171.638 169.076 171.638 168.908 171.693 168.752C171.747 168.595 171.854 168.459 171.998 168.363L175.337 166.117C175.995 165.673 175.657 164.709 174.843 164.709H170.715C170.538 164.709 170.365 164.657 170.222 164.56C170.079 164.464 169.972 164.328 169.917 164.172L168.641 160.537Z" stroke="#F9C94E" stroke-linecap="round" stroke-linejoin="round"/>
<path d="M126.94 168.39C126.37 168.39 125.92 168.89 125.92 169.5C125.92 170.11 126.38 170.61 126.94 170.61C127.51 170.61 127.96 170.11 127.96 169.5C127.97 168.89 127.51 168.39 126.94 168.39ZM130.59 168.39C130.02 168.39 129.57 168.89 129.57 169.5C129.57 170.11 130.03 170.61 130.59 170.61C131.16 170.61 131.61 170.11 131.61 169.5C131.61 168.89 131.16 168.39 130.59 168.39Z" fill="black"/>
<path d="M135.45 160H122.05C120.92 160 120 160.92 120 162.06V175.58C120 176.72 120.92 177.64 122.05 177.64H133.39L132.86 175.79L134.14 176.98L135.35 178.1L137.5 180V162.06C137.5 160.92 136.58 160 135.45 160ZM131.59 173.06C131.59 173.06 131.23 172.63 130.93 172.25C132.24 171.88 132.74 171.06 132.74 171.06C132.33 171.33 131.94 171.52 131.59 171.65C131.09 171.86 130.61 172 130.14 172.08C129.18 172.26 128.3 172.21 127.55 172.07C126.98 171.96 126.49 171.8 126.08 171.64C125.85 171.55 125.6 171.44 125.35 171.3C125.32 171.28 125.29 171.27 125.26 171.25C125.24 171.24 125.23 171.23 125.22 171.22C125.04 171.12 124.94 171.05 124.94 171.05C124.94 171.05 125.42 171.85 126.69 172.23C126.39 172.61 126.02 173.06 126.02 173.06C123.81 172.99 122.97 171.54 122.97 171.54C122.97 168.32 124.41 165.71 124.41 165.71C125.85 164.63 127.22 164.66 127.22 164.66L127.32 164.78C125.52 165.3 124.69 166.09 124.69 166.09C124.69 166.09 124.91 165.97 125.28 165.8C126.35 165.33 127.2 165.2 127.55 165.17C127.61 165.16 127.66 165.15 127.72 165.15C128.33 165.07 129.02 165.05 129.74 165.13C130.69 165.24 131.71 165.52 132.75 166.09C132.75 166.09 131.96 165.34 130.26 164.82L130.4 164.66C130.4 164.66 131.77 164.63 133.21 165.71C133.21 165.71 134.65 168.32 134.65 171.54C134.65 171.54 133.8 172.99 131.59 173.06V173.06Z" fill="black"/>
<path fill-rule="evenodd" clip-rule="evenodd" d="M99.9965 160C97.6225 160.001 95.3263 160.842 93.5186 162.372C91.7109 163.902 90.5095 166.022 90.1292 168.352C89.7489 170.682 90.2145 173.07 91.4428 175.09C92.6711 177.11 94.5819 178.63 96.8337 179.377C97.3304 179.47 97.5176 179.162 97.5176 178.9C97.5176 178.638 97.5076 177.879 97.5043 177.049C94.7224 177.65 94.1346 175.875 94.1346 175.875C93.6808 174.723 93.0251 174.42 93.0251 174.42C92.1177 173.804 93.093 173.816 93.093 173.816C94.0981 173.886 94.6264 174.841 94.6264 174.841C95.5172 176.361 96.9661 175.922 97.5358 175.665C97.6252 175.021 97.8852 174.583 98.1717 174.334C95.9494 174.084 93.6146 173.231 93.6146 169.421C93.6008 168.433 93.9696 167.478 94.6446 166.752C94.5419 166.502 94.1991 165.491 94.7423 164.118C94.7423 164.118 95.5818 163.851 97.4927 165.137C99.1318 164.691 100.861 164.691 102.5 165.137C104.409 163.851 105.247 164.118 105.247 164.118C105.792 165.488 105.449 166.499 105.347 166.752C106.024 167.478 106.393 168.435 106.378 169.424C106.378 173.243 104.039 174.084 101.813 174.329C102.171 174.639 102.49 175.243 102.49 176.172C102.49 177.502 102.479 178.572 102.479 178.9C102.479 179.165 102.659 179.475 103.166 179.377C105.418 178.63 107.329 177.11 108.557 175.089C109.785 173.069 110.251 170.68 109.87 168.35C109.489 166.02 108.287 163.9 106.479 162.371C104.671 160.841 102.374 160 99.9998 160H99.9965Z" fill="black"/>
<g clip-path="url(#clip0_1342_1331)">
<path d="M79.6018 165.155C79.4888 164.729 79.2659 164.341 78.9556 164.028C78.6453 163.716 78.2584 163.491 77.8337 163.375C76.27 162.955 70.02 162.955 70.02 162.955C70.02 162.955 63.77 162.955 62.2064 163.375C61.7816 163.491 61.3947 163.716 61.0844 164.028C60.7741 164.341 60.5513 164.729 60.4382 165.155C60.02 166.725 60.02 170 60.02 170C60.02 170 60.02 173.275 60.4382 174.845C60.5513 175.271 60.7741 175.659 61.0844 175.972C61.3947 176.284 61.7816 176.509 62.2064 176.625C63.77 177.045 70.02 177.045 70.02 177.045C70.02 177.045 76.27 177.045 77.8337 176.625C78.2584 176.509 78.6453 176.284 78.9556 175.972C79.2659 175.659 79.4888 175.271 79.6018 174.845C80.02 173.275 80.02 170 80.02 170C80.02 170 80.02 166.725 79.6018 165.155Z" fill="black"/>
<path d="M67.9746 172.974V167.026L73.2019 170L67.9746 172.974Z" fill="#FEFEFE"/>
</g>
<path d="M10 161.801C12.6719 161.801 12.9883 161.812 14.0391 161.859C15.0156 161.902 15.543 162.066 15.8945 162.203C16.3594 162.383 16.6953 162.602 17.043 162.949C17.3945 163.301 17.6094 163.633 17.7891 164.098C17.9258 164.449 18.0898 164.98 18.1328 165.953C18.1797 167.008 18.1914 167.324 18.1914 169.992C18.1914 172.664 18.1797 172.98 18.1328 174.031C18.0898 175.008 17.9258 175.535 17.7891 175.887C17.6094 176.352 17.3906 176.688 17.043 177.035C16.6914 177.387 16.3594 177.602 15.8945 177.781C15.543 177.918 15.0117 178.082 14.0391 178.125C12.9844 178.172 12.668 178.184 10 178.184C7.32813 178.184 7.01172 178.172 5.96094 178.125C4.98438 178.082 4.45703 177.918 4.10547 177.781C3.64063 177.602 3.30469 177.383 2.95703 177.035C2.60547 176.684 2.39063 176.352 2.21094 175.887C2.07422 175.535 1.91016 175.004 1.86719 174.031C1.82031 172.977 1.80859 172.66 1.80859 169.992C1.80859 167.32 1.82031 167.004 1.86719 165.953C1.91016 164.977 2.07422 164.449 2.21094 164.098C2.39063 163.633 2.60938 163.297 2.95703 162.949C3.30859 162.598 3.64063 162.383 4.10547 162.203C4.45703 162.066 4.98828 161.902 5.96094 161.859C7.01172 161.812 7.32813 161.801 10 161.801ZM10 160C7.28516 160 6.94531 160.012 5.87891 160.059C4.81641 160.105 4.08594 160.277 3.45313 160.523C2.79297 160.781 2.23438 161.121 1.67969 161.68C1.12109 162.234 0.78125 162.793 0.523438 163.449C0.277344 164.086 0.105469 164.812 0.0585938 165.875C0.0117188 166.945 0 167.285 0 170C0 172.715 0.0117188 173.055 0.0585938 174.121C0.105469 175.184 0.277344 175.914 0.523438 176.547C0.78125 177.207 1.12109 177.766 1.67969 178.32C2.23438 178.875 2.79297 179.219 3.44922 179.473C4.08594 179.719 4.8125 179.891 5.875 179.938C6.94141 179.984 7.28125 179.996 9.99609 179.996C12.7109 179.996 13.0508 179.984 14.1172 179.938C15.1797 179.891 15.9102 179.719 16.543 179.473C17.1992 179.219 17.7578 178.875 18.3125 178.32C18.8672 177.766 19.2109 177.207 19.4648 176.551C19.7109 175.914 19.8828 175.188 19.9297 174.125C19.9766 173.059 19.9883 172.719 19.9883 170.004C19.9883 167.289 19.9766 166.949 19.9297 165.883C19.8828 164.82 19.7109 164.09 19.4648 163.457C19.2188 162.793 18.8789 162.234 18.3203 161.68C17.7656 161.125 17.207 160.781 16.5508 160.527C15.9141 160.281 15.1875 160.109 14.125 160.063C13.0547 160.012 12.7148 160 10 160Z" fill="black"/>
<path d="M10 164.863C7.16406 164.863 4.86328 167.164 4.86328 170C4.86328 172.836 7.16406 175.137 10 175.137C12.8359 175.137 15.1367 172.836 15.1367 170C15.1367 167.164 12.8359 164.863 10 164.863ZM10 173.332C8.16016 173.332 6.66797 171.84 6.66797 170C6.66797 168.16 8.16016 166.668 10 166.668C11.8398 166.668 13.332 168.16 13.332 170C13.332 171.84 11.8398 173.332 10 173.332Z" fill="black"/>
<path d="M16.5391 164.66C16.5391 165.324 16 165.859 15.3398 165.859C14.6758 165.859 14.1406 165.32 14.1406 164.66C14.1406 163.996 14.6797 163.461 15.3398 163.461C16 163.461 16.5391 164 16.5391 164.66Z" fill="black"/>
<path d="M50 170C50 164.477 45.5229 160 40 160C34.4771 160 30 164.477 30 170C30 174.991 33.6568 179.128 38.4375 179.879V172.891H35.8984V170H38.4375V167.797C38.4375 165.291 39.9305 163.906 42.2146 163.906C43.3084 163.906 44.4531 164.102 44.4531 164.102V166.563H43.1922C41.95 166.563 41.5625 167.333 41.5625 168.125V170H44.3359L43.8926 172.891H41.5625V179.879C46.3432 179.128 50 174.991 50 170Z" fill="black"/>
<rect x="90" y="187" width="30" height="30" fill="#D9D9D9"/>
<defs>
<clipPath id="clip0_1342_1331">
<rect width="20" height="20" fill="white" transform="translate(60 160)"/>
</clipPath>
</defs>
</svg>
