<svg width="468" height="86" viewBox="0 0 468 86" fill="none" xmlns="http://www.w3.org/2000/svg">
<path d="M36 23.0732V20.9757H34V18.8781H30V14.683H26V10.4878H22V6.29272H10V44.0488H22V41.9513V39.8537H26V35.6586H30V31.4635H34V29.3659H36V27.2683H38V23.0732H36ZM26 27.2683V31.4635H22V35.6586H18V39.8537H14V10.4878H18V14.683H22V18.8781H26V23.0732H30V27.2683H26Z" fill="black"/>
<path fill-rule="evenodd" clip-rule="evenodd" d="M64 41.9512V8.39026H70V41.9512H64ZM78 41.9512V8.39026H84V41.9512H78Z" fill="black"/>
<path fill-rule="evenodd" clip-rule="evenodd" d="M158 6.29272H170V10.4878H174V14.683H178V18.8781H182V20.9757H184V29.3659H182V31.4635H178V35.6586H174V39.8537H170V44.0488H158V6.29272ZM174 31.4635V27.2683H178V23.0732H174V18.8781H170V14.683H166V10.4878H162V39.8537H166V35.6586H170V31.4635H174ZM186 6.29272H190V44.0488H186V6.29272Z" fill="black"/>
<path fill-rule="evenodd" clip-rule="evenodd" d="M107 6.29272H111V44.0488H107V6.29272ZM123 10.4878H127V6.29272H139V44.0488H127V39.8537H123V35.6586H119V31.4635H115V29.3659H113V20.9757H115V18.8781H119V14.683H123V10.4878ZM119 23.0732V27.2683H123V31.4635H127V35.6586H131V39.8537H135V10.4878H131V14.683H127V18.8781H123V23.0732H119Z" fill="black"/>
<path fill-rule="evenodd" clip-rule="evenodd" d="M286 10H282V14H286V18H274V22L270 22V34H254V38H270V34H274L274 22H286V26H282V30H286V26H290V22H294V18H290V14H286V10ZM254 18H266V22H254V18ZM294 34H278V38H294V34Z" fill="black"/>
<path fill-rule="evenodd" clip-rule="evenodd" d="M230 4H226V8H230V12H206V16H202V26H206V16H230V20L226 20V24H230V20H234V16H238V12H234V8H230V4ZM210 40H214V44H218V40H214V36H238V32H242V22H238V32H214V28L218 28V24H214V28H210V32H206V36H210V40Z" fill="black"/>
<rect x="307.405" y="15.2656" width="3.52381" height="3.96206" fill="black"/>
<rect x="307.405" y="19.2277" width="3.52381" height="3.96206" fill="black"/>
<rect x="304.762" y="17.2466" width="3.52381" height="3.96206" fill="black"/>
<rect x="303" y="15.2656" width="3.52381" height="3.96206" fill="black"/>
<rect x="310.048" y="17.2466" width="3.52381" height="3.96206" fill="black"/>
<rect x="311.809" y="15.2656" width="3.52381" height="3.96206" fill="black"/>
<rect x="307.405" y="11.3035" width="3.52381" height="3.96206" fill="black"/>
<rect x="308.286" y="8.33191" width="3.52381" height="3.96206" fill="black"/>
<rect x="310.928" y="7.34143" width="3.52381" height="3.96206" fill="black"/>
<rect x="314.452" y="7.34143" width="3.52381" height="3.96206" fill="black"/>
<rect x="317.976" y="7.34143" width="3.52381" height="3.96206" fill="black"/>
<rect x="321.5" y="7.34143" width="3.52381" height="3.96206" fill="black"/>
<rect x="325.024" y="7.34143" width="3.52381" height="3.96206" fill="black"/>
<rect x="328.548" y="7.34143" width="3.52381" height="3.96206" fill="black"/>
<rect x="332.072" y="7.34143" width="3.52381" height="3.96206" fill="black"/>
<rect x="316.214" y="18.2372" width="3.52381" height="3.96206" fill="black"/>
<rect x="317.976" y="16.2561" width="3.52381" height="3.96206" fill="black"/>
<rect x="319.738" y="16.2561" width="3.52381" height="3.96206" fill="black"/>
<rect x="319.738" y="19.2277" width="3.52381" height="3.96206" fill="black"/>
<rect x="319.738" y="23.1896" width="3.52381" height="3.96206" fill="black"/>
<rect x="319.738" y="27.1517" width="3.52381" height="3.96206" fill="black"/>
<rect x="319.738" y="31.1138" width="3.52381" height="3.96206" fill="black"/>
<rect x="322.381" y="31.1138" width="3.52381" height="3.96206" fill="black"/>
<rect x="317.095" y="31.1138" width="3.52381" height="3.96206" fill="black"/>
<rect x="335.595" y="35.0758" width="3.52381" height="3.96206" transform="rotate(-180 335.595 35.0758)" fill="black"/>
<rect x="335.595" y="31.1138" width="3.52381" height="3.96206" transform="rotate(-180 335.595 31.1138)" fill="black"/>
<rect x="338.238" y="33.0948" width="3.52381" height="3.96206" transform="rotate(-180 338.238 33.0948)" fill="black"/>
<rect x="340" y="35.0758" width="3.52381" height="3.96206" transform="rotate(-180 340 35.0758)" fill="black"/>
<rect x="332.952" y="33.0948" width="3.52381" height="3.96206" transform="rotate(-180 332.952 33.0948)" fill="black"/>
<rect x="331.191" y="35.0758" width="3.52381" height="3.96206" transform="rotate(-180 331.191 35.0758)" fill="black"/>
<rect x="335.595" y="39.038" width="3.52381" height="3.96206" transform="rotate(-180 335.595 39.038)" fill="black"/>
<rect x="334.714" y="42.0095" width="3.52381" height="3.96206" transform="rotate(-180 334.714 42.0095)" fill="black"/>
<rect x="332.072" y="43" width="3.52381" height="3.96206" transform="rotate(-180 332.072 43)" fill="black"/>
<rect x="328.548" y="43" width="3.52381" height="3.96206" transform="rotate(-180 328.548 43)" fill="black"/>
<rect x="325.024" y="43" width="3.52381" height="3.96206" transform="rotate(-180 325.024 43)" fill="black"/>
<rect x="321.5" y="43" width="3.52381" height="3.96206" transform="rotate(-180 321.5 43)" fill="black"/>
<rect x="317.976" y="43" width="3.52381" height="3.96206" transform="rotate(-180 317.976 43)" fill="black"/>
<rect x="314.452" y="43" width="3.52381" height="3.96206" transform="rotate(-180 314.452 43)" fill="black"/>
<rect x="310.928" y="43" width="3.52381" height="3.96206" transform="rotate(-180 310.928 43)" fill="black"/>
<rect x="354" y="10" width="4" height="4" fill="black"/>
<rect x="358" y="10" width="4" height="4" fill="black"/>
<rect x="362" y="10" width="4" height="4" fill="black"/>
<rect x="366" y="10" width="4" height="4" fill="black"/>
<rect x="370" y="10" width="4" height="4" fill="black"/>
<rect x="374" y="10" width="4" height="4" fill="black"/>
<rect x="378" y="10" width="4" height="4" fill="black"/>
<rect x="382" y="10" width="4" height="4" fill="black"/>
<rect x="354" y="22" width="4" height="4" fill="black"/>
<rect x="358" y="22" width="4" height="4" fill="black"/>
<rect x="362" y="22" width="4" height="4" fill="black"/>
<rect x="366" y="22" width="4" height="4" fill="black"/>
<rect x="370" y="22" width="4" height="4" fill="black"/>
<rect x="374" y="22" width="4" height="4" fill="black"/>
<rect x="378" y="22" width="4" height="4" fill="black"/>
<rect x="382" y="22" width="4" height="4" fill="black"/>
<rect x="354" y="34" width="4" height="4" fill="black"/>
<rect x="358" y="34" width="4" height="4" fill="black"/>
<rect x="362" y="34" width="4" height="4" fill="black"/>
<rect x="366" y="34" width="4" height="4" fill="black"/>
<rect x="370" y="34" width="4" height="4" fill="black"/>
<rect x="374" y="34" width="4" height="4" fill="black"/>
<rect x="378" y="34" width="4" height="4" fill="black"/>
<rect x="382" y="34" width="4" height="4" fill="black"/>
<path fill-rule="evenodd" clip-rule="evenodd" d="M413 17H415V19H413V17ZM417 21H415V19H417V21ZM419 23H417V21H419V23ZM421 23H419V25H417V27H415V29H413V31H415V29H417V27H419V25H421V27H423V29H425V31H427V29H425V27H423V25H421V23ZM423 21V23H421V21H423ZM425 19V21H423V19H425ZM425 19V17H427V19H425Z" fill="black"/>
<rect width="2" height="2" transform="matrix(-1 0 0 1 429 15)" fill="black"/>
<rect x="413" y="29" width="2" height="2" fill="black"/>
<rect x="411" y="31" width="2" height="2" fill="black"/>
<rect x="411" y="15" width="2" height="2" fill="black"/>
<rect x="425" y="29" width="2" height="2" fill="black"/>
<rect x="427" y="31" width="2" height="2" fill="black"/>
<rect x="429" y="33" width="2" height="2" fill="black"/>
<rect x="429" y="33" width="2" height="2" fill="black"/>
<rect x="425" y="31" width="2" height="2" fill="black"/>
<rect x="427" y="33" width="2" height="2" fill="black"/>
<rect x="427" y="29" width="2" height="2" fill="black"/>
<rect x="429" y="31" width="2" height="2" fill="black"/>
<rect x="425" y="27" width="2" height="2" fill="black"/>
<rect x="423" y="25" width="2" height="2" fill="black"/>
<rect x="421" y="23" width="2" height="2" fill="black"/>
<rect x="417" y="27" width="2" height="2" fill="black"/>
<rect x="415" y="29" width="2" height="2" fill="black"/>
<rect x="413" y="31" width="2" height="2" fill="black"/>
<rect x="411" y="33" width="2" height="2" fill="black"/>
<rect x="409" y="31" width="2" height="2" fill="black"/>
<rect x="411" y="29" width="2" height="2" fill="black"/>
<rect x="413" y="27" width="2" height="2" fill="black"/>
<rect x="415" y="25" width="2" height="2" fill="black"/>
<rect x="417" y="23" width="2" height="2" fill="black"/>
<rect x="419" y="21" width="2" height="2" fill="black"/>
<rect x="423" y="21" width="2" height="2" fill="black"/>
<rect x="421" y="19" width="2" height="2" fill="black"/>
<rect x="425" y="19" width="2" height="2" fill="black"/>
<rect x="423" y="17" width="2" height="2" fill="black"/>
<rect x="425" y="15" width="2" height="2" fill="black"/>
<rect x="427" y="17" width="2" height="2" fill="black"/>
<rect x="429" y="15" width="2" height="2" fill="black"/>
<rect x="427" y="13" width="2" height="2" fill="black"/>
<rect x="415" y="21" width="2" height="2" fill="black"/>
<rect x="417" y="19" width="2" height="2" fill="black"/>
<rect x="413" y="19" width="2" height="2" fill="black"/>
<rect x="415" y="17" width="2" height="2" fill="black"/>
<rect x="411" y="17" width="2" height="2" fill="black"/>
<rect x="413" y="15" width="2" height="2" fill="black"/>
<rect x="409" y="15" width="2" height="2" fill="black"/>
<rect x="411" y="13" width="2" height="2" fill="black"/>
<rect x="423" y="29" width="2" height="2" fill="black"/>
<rect x="421" y="27" width="2" height="2" fill="black"/>
<rect x="419" y="25" width="2" height="2" fill="black"/>
<rect x="409" y="33" width="2" height="2" fill="black"/>
<rect x="409" y="13" width="2" height="2" fill="black"/>
<rect x="429" y="13" width="2" height="2" fill="black"/>
</svg>
